<?xml version="1.0" encoding="UTF-8" standalone="no"?>
<!-- Created with Inkscape (http://www.inkscape.org/) -->
<svg id="svg3464" xmlns:rdf="http://www.w3.org/1999/02/22-rdf-syntax-ns#" xmlns="http://www.w3.org/2000/svg" height="550.8" viewBox="0 0 712.79999 550.79999" width="712.8" version="1.1" xmlns:cc="http://creativecommons.org/ns#" xmlns:dc="http://purl.org/dc/elements/1.1/">
 <metadata id="metadata3470">
  <rdf:RDF>
   <cc:Work rdf:about="">
    <dc:format>image/svg+xml</dc:format>
    <dc:type rdf:resource="http://purl.org/dc/dcmitype/StillImage"/>
    <dc:title/>
   </cc:Work>
  </rdf:RDF>
 </metadata>
 <path id="path3474" d="m92.513 280.14v-199.83h258.6 258.6v199.83 199.83h-258.6-258.6v-199.83zm86.938 106.02c.73567-.88621.95477-9.9155 1.2228-50.39l.32652-49.311 3.9182-.80067c17.027-3.4794 33.413-16.274 41.54-32.435 4.2584-8.4685 5.9095-15.157 6.2933-25.495.35285-9.5042-.18043-13.937-2.5723-21.382-3.264-10.159-8.7292-18.687-16.905-26.378-10.876-10.231-23.711-15.689-38.804-16.501-16.93-.91074-32.877 4.8548-45.126 16.315-10.372 9.7045-16.631 21.047-19.248 34.885-1.2852 6.7944-.45662 20.86 1.645 27.923 4.2914 14.422 14.081 27.35 26.634 35.175 5.9299 3.696 10.973 5.7953 18.391 7.6557l5.6229 1.4103v21.47 21.47h-13.257c-9.4401 0-13.482.22561-14.04.78365-.51211.51211-.78365 3.2113-.78365 7.7899 0 9.0796-.0198 9.0586 8.5362 9.0586h6.4838v6.2039 6.2039h-6.0586c-8.7917 0-8.9614.17314-8.9614 9.1426 0 9.5836-.74721 9.1426 15.492 9.1426h12.589v3.3081c0 5.6836.22652 5.8344 8.7591 5.8344 6.0925 0 7.5661-.19161 8.3033-1.0797zm-20.33-118.01c-12.907-3.884-22.383-11.849-28.075-23.598-5.9886-12.36-5.9871-26.184.004-38.53 5.9641-12.29 16.768-21.162 29.377-24.125 5.4458-1.2797 16.105-1.2797 21.55 0 12.61 2.9632 23.413 11.835 29.378 24.125 5.9912 12.346 5.9926 26.169.004 38.53-4.4954 9.2785-11.278 16.084-20.791 20.862-8.842 4.4408-21.983 5.5842-31.447 2.7362zm16.655-32.039c6.4635-4.553 12.108-8.7447 12.543-9.3148.54426-.71329.59157-1.4093.15164-2.2313-.75695-1.4144-18.681-14.913-22.596-17.017-4.7892-2.5738-4.795-2.5516-4.795 18.418 0 18.291.11844 19.254 2.2885 18.616.36076-.10601 5.9443-3.9179 12.408-8.4709zm325.12 138.7c6.6716-2.4962 10.832-7.4434 13.304-15.818 1.3536-4.587 1.9865-43.118.83734-50.978-1.5447-10.564-5.5262-16.854-12.989-20.519-3.2329-1.5877-4.4165-1.803-9.877-1.7971-5.2996.006-6.7318.25336-9.8254 1.6986-4.7479 2.2181-7.794 4.9627-9.994 9.005-3.0052 5.5216-3.7299 10.569-4.1351 28.799-.41577 18.707.29739 29.312 2.4347 36.206 1.1971 3.8611 2.0087 5.1366 5.4721 8.6 4.84 4.84 7.9108 6.0183 15.86 6.0858 3.8824.0329 6.3429-.32112 8.9121-1.2824zm-13.034-12.319c-4.4727-2.7274-5.8248-12.179-5.2876-36.964.40567-18.717 1.0373-22.352 4.4076-25.364 1.9094-1.706 2.4495-1.8557 5.7187-1.5846 2.8845.2392 3.9099.64791 5.1017 2.0334 2.7561 3.2042 3.0505 5.6113 3.343 27.338.28516 21.183-.12285 27.24-2.1182 31.445-1.8997 4.0033-7.2461 5.4858-11.165 3.096zm-214.46-4.2315v-17.225l7.6732-.32912c4.696-.20142 8.8277-.74648 10.649-1.4048 8.8498-3.1996 12.701-11.174 12.645-26.181-.0398-10.562-1.6675-16.138-6.0368-20.678-4.9711-5.1655-7.582-5.7702-24.913-5.7702h-14.383v44.407 44.407h7.1835 7.1835v-17.225zm0-44.879v-14.432l5.8098.22823c4.6823.18395 6.0893.48141 7.2503 1.5328 2.4048 2.1778 3.3166 4.7145 3.7095 10.321.49437 7.0536-.62569 12.494-3.0771 14.945-1.7445 1.7445-2.1368 1.8373-7.7649 1.8373h-5.9276v-14.432zm44.639 57.369c.5591-2.604 1.3615-6.5712 1.7831-8.8161l.76657-4.0815h10.21 10.21l1.7912 8.6032c.98512 4.7318 1.8969 8.709 2.0262 8.8383.12929.12929 3.4601.15162 7.4017.0496l7.1666-.18546-6.3448-26.122c-3.4897-14.367-8.3237-34.277-10.742-44.244l-4.3975-18.122h-6.9734-6.9734l-10.681 43.591c-5.8743 23.975-10.817 43.958-10.984 44.407-.2321.62335 1.4722.8163 7.2104.8163h7.5143l1.0165-4.7346zm5.7845-27.428c3.7133-18.699 6.7882-33.142 7.0561-33.142.29665 0 7.2008 32.813 7.1794 34.121-.005.26938-3.2748.48978-7.2676.48978-7.1796 0-7.2564-.0162-6.9678-1.4693zm62.553-6.0406v-38.203h7.51 7.51v-6.2039-6.2039h-22.203-22.203v6.2039 6.2039h7.51 7.51v38.203 38.203h7.1835 7.1835v-38.203zm39.183 19.885v-18.318l3.7034.19585 3.7034.19585 2.4612 7.51c1.3536 4.1305 3.969 12.285 5.8119 18.122l3.3508 10.612h7.412 7.412l-6.5378-19.602-6.5378-19.602 3.2357-2.9092c5.0935-4.5795 6.2212-7.8648 6.5501-19.083.2356-8.0361.09-9.8777-1.0871-13.753-1.8692-6.1538-4.3677-9.3859-9.0226-11.672l-3.8025-1.8672-15.51-.20598-15.51-.20598v44.45 44.45h7.1835 7.1835v-18.318zm0-44.766v-13.452l5.8098.22823c6.3316.24874 7.702.92509 9.699 4.7869 1.2751 2.4658 1.4371 13.347.25033 16.818-1.4082 4.1194-3.2797 5.0713-9.9698 5.0713h-5.7893v-13.452zm116.93 37.125.0336-25.958 10.267 25.795 10.267 25.795 6.3519.18691 6.352.1869v-44.431-44.431h-7.1835-7.1835l-.0324 25.632-.0324 25.632-3.1424-7.8365c-1.7283-4.3101-6.3005-15.844-10.16-25.632l-7.018-17.795h-6.4598-6.4598v44.407 44.407h7.1835 7.1835l.0336-25.958zm-197.06-82.16c4.0256-1.3717 7.9176-5.3506 9.4052-9.6154 1.0896-3.1238 1.1832-6.3868 1.1832-41.268v-37.876h-2.6122-2.6122l-.32652 38.904-.32652 38.904-1.6326 2.4101c-3.7665 5.5603-12.094 6.6379-16.878 2.184-3.8052-3.543-3.6647-2.0088-4.0195-43.874l-.32652-38.53-2.4685-.20385-2.4685-.20386.18286 39.386c.18267 39.349.18424 39.389 1.6425 42.117 1.6983 3.1769 5.6137 6.668 8.752 7.8037 3.1293 1.1324 8.9642 1.0676 12.505-.13886zm217.37.27507c5.8716-1.7592 9.7851-7.5405 10.769-15.908l.42055-3.5782h-2.6268-2.6268l-.44157 3.5341c-.53426 4.2761-2.6713 8.6654-5.0694 10.412-2.719 1.9805-8.2612 2.2112-11.742.48879-3.5557-1.7595-4.8269-3.5313-6.2328-8.6868-.97486-3.5749-1.1222-7.5903-1.1219-30.564.00043-28.113.32717-31.895 3.108-35.98 2.1342-3.135 4.3408-4.4891 8.0266-4.9256 6.9898-.82784 11.47 3.075 12.863 11.204l.72506 4.2329h2.5694 2.5694l-.41051-3.4929c-.86747-7.3808-3.7287-12.438-8.46-14.954-3.8965-2.0716-12.649-2.0888-16.513-.0325-6.2834 3.3438-8.4118 8.0664-9.5059 21.091-.86152 10.256-.33817 47.826.7411 53.202 1.393 6.9386 5.1012 11.932 10.214 13.755 3.126 1.1143 9.3693 1.213 12.745.20149zm-297.23-20.402v-20.507l8.6528-.2464c7.3689-.20984 9.059-.4607 11.39-1.6906 6.2693-3.3074 8.3641-8.906 8.3641-22.354 0-10.931-.97412-14.871-4.6948-18.989-3.6309-4.019-6.7212-4.8276-18.488-4.8381l-10.122-.009-.16912 43.754c-.093 24.065-.0288 44.121.14277 44.57.17153.44897 1.3496.81631 2.618.81631h2.3061v-20.507zm0-44.524v-19.318l8.1178.21651c9.46.25232 10.765.84758 13.433 6.1278 1.5178 3.0041 1.6326 3.897 1.6326 12.7 0 8.9304-.10064 9.6839-1.7688 13.244-2.461 5.252-4.8738 6.3136-14.394 6.333l-7.0202.0143v-19.318zm144.16 63.43c3.7181-1.5471 8.2174-6.6416 9.3695-10.609.58815-2.0253.90859-6.3755.90452-12.279-.006-8.1903-.16642-9.4982-1.5433-12.556-1.5844-3.5188-6.4742-8.6678-8.2314-8.6678-.54679 0-.99416-.29387-.99416-.65304 0-.35918.30043-.65305.66763-.65305s1.9726-1.2029 3.5676-2.6731c4.331-3.9922 5.7413-8.2226 5.7488-17.245.008-9.5202-1.1737-13.617-5.0445-17.487-3.8906-3.8907-6.8898-4.6582-18.327-4.6904l-9.1426-.0257-.16782 44.648-.16781 44.648 10.29-.3002c7.8411-.22876 10.952-.57554 13.07-1.4572zm-18.127-22.469v-19.684l6.0406.004c7.9369.005 10.35.73419 13.115 3.9637 3.1273 3.6535 4.0277 7.3653 4.0277 16.603 0 7.2112-.14211 8.1259-1.781 11.463-2.6104 5.3152-5.1608 6.564-14.29 6.9967l-7.1121.3371v-19.684zm0-42.14v-18.033h6.883c8.3538 0 10.908 1.0175 13.357 5.3202 1.4084 2.475 1.6485 3.8168 1.8552 10.37.25711 8.1508-.35506 11.6-2.6678 15.032-2.5386 3.767-5.1564 4.8149-12.729 5.0952l-6.6985.24796v-18.033zm86.855 63.924v-2.2856h-11.75-11.75l-.16803-42.284-.16802-42.284-2.4489-.20269-2.4489-.20268v44.773 44.773h14.367 14.367v-2.2856zm30.534-42.284-.1678-44.57-2.4489-.20269-2.4489-.20268v44.773 44.773h2.6167 2.6167l-.16779-44.57z"/>
</svg>
